{
	"nodes":[{
		"name":"rock_pack_vol.1-3.obj",
		"children":[1]
	},
	{
		"name":"moss_rock_02_modelShape.005",
		"mesh":0
	}],
	"asset":{
		"version":"2.0",
		"generator":"Created using the official Cinema 4D glTF Exporter 1.000x284978"
	},
	"scenes":[{
		"nodes":[0]
	}],
	"accessors":[{
		"bufferView":0,
		"type":"SCALAR",
		"componentType":5123,
		"count":21000,
		"byteOffset":0,
		"min":[0],
		"max":[3985]
	},
	{
		"bufferView":1,
		"type":"VEC3",
		"componentType":5126,
		"count":3986,
		"byteOffset":0,
		"min":[5.908822059631348,
		-0.04171299934387207,
		-1.426650047302246],
		"max":[8.146967887878418,
		1.4274250268936158,
		1.9439680576324463]
	},
	{
		"bufferView":1,
		"type":"VEC3",
		"componentType":5126,
		"count":3986,
		"byteOffset":12,
		"min":[-0.99937504529953,
		-0.9999375343322754,
		-0.9923125505447388],
		"max":[0.9981563091278076,
		0.9983750581741333,
		0.9999375343322754]
	},
	{
		"bufferView":1,
		"type":"VEC2",
		"componentType":5126,
		"count":3986,
		"byteOffset":24,
		"min":[0.00008199999865610152,
		0.003360999748110771],
		"max":[0.9407269954681397,
		0.9991589784622192]
	}],
	"meshes":[{
		"name":"moss_rock_02_modelShape.005",
		"primitives":[{
			"attributes":{
				"POSITION":1,
				"NORMAL":2,
				"TEXCOORD_0":3
			},
			"indices":0,
			"material":0
		}]
	}],
	"bufferViews":[{
		"buffer":0,
		"byteOffset":0,
		"byteLength":42000,
		"target":34963
	},
	{
		"buffer":0,
		"byteOffset":42000,
		"byteLength":127552,
		"target":34962,
		"byteStride":32
	}],
	"buffers":[{
		"uri":"data:application/octet-stream;base64,",
		"byteLength":169552
	}],
	"materials":[{
		"pbrMetallicRoughness":{
			"baseColorFactor":[0.7529411764705882,
			0.7529411764705882,
			0.7529411764705882,
			1.0],
			"metallicFactor":1.0,
			"roughnessFactor":0.05
		},
		"emissiveFactor":[0.0,
		0.0,
		0.0],
		"doubleSided":false,
		"alphaMode":"OPAQUE",
		"name":"Mirror"
	}]
}